<?xml version="1.0" standalone="no"?>
<!DOCTYPE svg PUBLIC "-//W3C//DTD SVG 20010904//EN"
 "http://www.w3.org/TR/2001/REC-SVG-20010904/DTD/svg10.dtd">
<svg version="1.0" xmlns="http://www.w3.org/2000/svg"
 width="200.000000pt" height="200.000000pt" viewBox="0 0 200.000000 200.000000"
 preserveAspectRatio="xMidYMid meet">

<g transform="translate(0.000000,200.000000) scale(0.100000,-0.100000)"
fill="#000000" stroke="none">
<path d="M867 1473 c-353 -394 -396 -447 -397 -479 0 -36 32 -74 63 -74 28 0
60 34 286 293 94 108 175 197 179 197 4 0 106 -113 227 -250 130 -148 227
-250 237 -250 10 0 30 19 45 41 l27 41 -19 34 c-39 65 -495 574 -515 574 -12
0 -62 -48 -133 -127z"/>
<path d="M1248 1509 c-12 -7 -18 -22 -18 -49 0 -39 40 -101 104 -159 l26 -24
0 115 c0 96 -3 117 -16 122 -24 9 -77 7 -96 -5z"/>
<path d="M804 1134 c-98 -113 -184 -216 -191 -227 -9 -15 -12 -85 -13 -225 l0
-203 25 -25 c24 -24 28 -25 147 -22 l123 3 3 179 c1 112 7 185 13 193 12 13
132 19 163 7 14 -5 16 -31 16 -179 0 -95 3 -180 6 -189 5 -13 26 -16 126 -16
66 0 128 4 138 10 32 17 40 67 40 247 0 129 -4 183 -15 209 -8 19 -92 123
-187 232 -179 205 -186 212 -204 212 -6 0 -92 -93 -190 -206z"/>
</g>
</svg>
