<?xml version="1.0" encoding="UTF-8" standalone="no"?>
<svg
   xmlns:dc="http://purl.org/dc/elements/1.1/"
   xmlns:cc="http://creativecommons.org/ns#"
   xmlns:rdf="http://www.w3.org/1999/02/22-rdf-syntax-ns#"
   xmlns:svg="http://www.w3.org/2000/svg"
   xmlns="http://www.w3.org/2000/svg"
   viewBox="0 0 321.33334 321.33334"
   height="321.33334"
   width="321.33334"
   xml:space="preserve"
   id="svg2"
   version="1.1"><metadata
     id="metadata8"><rdf:RDF><cc:Work
         rdf:about=""><dc:format>image/svg+xml</dc:format><dc:type
           rdf:resource="http://purl.org/dc/dcmitype/StillImage" /></cc:Work></rdf:RDF></metadata><defs
     id="defs6" /><g
     transform="matrix(1.3333333,0,0,-1.3333333,0,321.33333)"
     id="g10"><path
       id="path12"
       style="fill:#005593;fill-opacity:1;fill-rule:evenodd;stroke:none"
       d="m 58.677,86.712 c 15.151,-16.826 37.101,-27.408 61.525,-27.408 24.425,0 46.376,10.582 61.526,27.408 4.411,4.898 8.248,10.324 11.399,16.174 6.285,11.667 9.853,25.014 9.853,39.195 0,23.849 -10.088,45.337 -26.226,60.442 21.467,-16.806 35.265,-42.959 35.265,-72.336 0,-15.73 -3.958,-30.534 -10.93,-43.475 -15.5,-28.779 -45.908,-48.341 -80.887,-48.341 -34.978,0 -65.385,19.562 -80.886,48.341 -6.971,12.941 -10.929,27.745 -10.929,43.475 0,29.377 13.798,55.53 35.265,72.336 -16.138,-15.105 -26.227,-36.593 -26.227,-60.442 0,-14.181 3.568,-27.528 9.854,-39.195 3.151,-5.85 6.987,-11.276 11.398,-16.174" /><path
       id="path14"
       style="fill:#0084c3;fill-opacity:1;fill-rule:evenodd;stroke:none"
       d="m 145.846,105.208 v 0 c 0,0 26.777,17.376 32.475,20.51 5.698,3.135 7.122,1.71 11.68,5.413 4.101,3.333 4.974,6.895 8.014,7.991 -0.457,-12.237 -3.736,-23.753 -9.208,-33.914 h -42.961" /><path
       id="path16"
       style="fill:#006dac;fill-opacity:1;fill-rule:evenodd;stroke:none"
       d="m 43.286,154.296 c 5.796,-2.887 11.779,-5.775 15.959,-7.497 9.685,-3.988 14.244,-8.547 19.086,-8.831 6.61,-0.389 11.859,10.352 22.342,3.537 5.697,-3.703 21.699,-11.641 21.699,-11.641 0,0 11.938,6.008 15.356,6.008 3.417,0 13.726,-7.81 21.417,-11.228 7.692,-3.418 25.159,-11.745 25.159,-11.745 0,0 4.445,3.555 9.605,3.992 -1.386,-4.056 -3.097,-7.96 -5.102,-11.683 H 51.599 c -5.913,10.976 -9.27,23.532 -9.27,36.874 0,4.156 0.329,8.234 0.957,12.214" /><path
       id="path18"
       style="fill:#005593;fill-opacity:1;fill-rule:evenodd;stroke:none"
       d="m 45.506,120.014 c 1.737,-0.747 3.657,-1.647 6.046,-2.842 9.116,-4.558 29.058,-11.964 29.058,-11.964 H 51.599 c -2.515,4.669 -4.565,9.625 -6.093,14.806" /><path
       id="path20"
       style="fill:#69b6db;fill-opacity:1;fill-rule:evenodd;stroke:none"
       d="m 145.846,105.208 v 0 c 0,0 26.777,-7.47 32.475,-8.819 1.795,-0.424 3.165,-0.653 4.344,-0.819 2.273,3.048 4.328,6.269 6.142,9.638 h -42.961" /><path
       id="path22"
       style="fill:#309bce;fill-opacity:1;fill-rule:evenodd;stroke:none"
       d="m 63.934,88.249 c 6.617,1.429 10.411,2.775 14.397,2.875 4.842,0.123 11.68,-1.714 16.807,-3.062 5.128,-1.347 11.395,-2.694 17.093,-1.102 5.697,1.592 14.813,4.898 14.813,4.898 0,0 9.971,-1.101 13.39,-1.101 3.417,0 12.249,3.674 19.94,5.143 7.693,1.471 23.93,6.001 23.93,6.001 0,0 0.845,-0.291 2.227,-0.634 0.795,1.289 1.555,2.603 2.276,3.941 H 51.599 C 54.942,99.001 59.1,93.3 63.934,88.249" /><path
       id="path24"
       style="fill:#0084c3;fill-opacity:1;fill-rule:evenodd;stroke:none"
       d="m 54.276,100.624 c 9.844,1.95 26.334,4.584 26.334,4.584 H 51.599 c 0.84,-1.561 1.735,-3.089 2.677,-4.584" /></g></svg>